<?xml version="1.0" encoding="UTF-8" standalone="no"?>
<svg
   version="1.0"
   viewBox="0 0 128 128"
   xml:space="preserve"
   id="svg191"
   sodipodi:docname="pyglossary.svg"
   inkscape:version="1.2.2 (b0a8486541, 2022-12-01)"
   inkscape:export-filename="pyglossary.png"
   inkscape:export-xdpi="48"
   inkscape:export-ydpi="48"
   xmlns:inkscape="http://www.inkscape.org/namespaces/inkscape"
   xmlns:sodipodi="http://sodipodi.sourceforge.net/DTD/sodipodi-0.dtd"
   xmlns:xlink="http://www.w3.org/1999/xlink"
   xmlns="http://www.w3.org/2000/svg"
   xmlns:svg="http://www.w3.org/2000/svg"
   xmlns:rdf="http://www.w3.org/1999/02/22-rdf-syntax-ns#"
   xmlns:cc="http://creativecommons.org/ns#"
   xmlns:dc="http://purl.org/dc/elements/1.1/"><sodipodi:namedview
     id="namedview193"
     pagecolor="#ffffff"
     bordercolor="#000000"
     borderopacity="0.25"
     inkscape:showpageshadow="2"
     inkscape:pageopacity="0.0"
     inkscape:pagecheckerboard="0"
     inkscape:deskcolor="#d1d1d1"
     showgrid="false"
     showguides="true"
     inkscape:zoom="10.429825"
     inkscape:cx="58.294363"
     inkscape:cy="72.772074"
     inkscape:window-width="1920"
     inkscape:window-height="1132"
     inkscape:window-x="0"
     inkscape:window-y="0"
     inkscape:window-maximized="1"
     inkscape:current-layer="svg191" /><metadata
     id="metadata2"><rdf:RDF><cc:Work
         rdf:about=""><dc:format>image/svg+xml</dc:format><dc:type
           rdf:resource="http://purl.org/dc/dcmitype/StillImage" /></cc:Work></rdf:RDF></metadata><defs
     id="defs113"><linearGradient
       id="a"><stop
         offset="0"
         id="stop4" /><stop
         stop-color="#fff"
         offset="1"
         id="stop6" /></linearGradient><linearGradient
       id="d"><stop
         offset="0"
         id="stop9" /><stop
         stop-opacity=".59928"
         offset=".25"
         id="stop11" /><stop
         stop-opacity=".27798"
         offset=".5"
         id="stop13" /><stop
         stop-opacity="0"
         offset="1"
         id="stop15" /></linearGradient><linearGradient
       id="b"><stop
         stop-color="#fff"
         offset="0"
         id="stop18" /><stop
         stop-color="#fff"
         stop-opacity="0"
         offset="1"
         id="stop20" /></linearGradient><linearGradient
       id="ac"
       x1="28.947"
       x2="28.947"
       y1="125.9"
       y2="104.96"
       gradientTransform="matrix(0.9216438,-0.18792652,0.1812312,0.9491308,-8.2976629,15.51649)"
       gradientUnits="userSpaceOnUse"><stop
         offset="0"
         id="stop23" /><stop
         stop-opacity="0"
         offset="1"
         id="stop25" /></linearGradient><linearGradient
       id="c"
       x1="4.9107"
       x2="58.885"
       y1="44.649"
       y2="36.866"
       gradientTransform="matrix(2.4898079,-1.0532794,-1.0191779,-2.5633372,38.014025,153.95822)"
       gradientUnits="userSpaceOnUse"
       xlink:href="#b" /><radialGradient
       id="f"
       cx="-36.858"
       cy="75.225"
       r=".97227"
       gradientTransform="matrix(0.87588418,-0.1612775,-18.244594,-102.73573,1434.863,7744.6263)"
       gradientUnits="userSpaceOnUse"><stop
         offset="0"
         id="stop29" /><stop
         stop-opacity="0"
         offset="1"
         id="stop31" /></radialGradient><linearGradient
       id="y"
       x1="20.607"
       x2="14.044"
       y1="54.213"
       y2="16.438"
       gradientTransform="matrix(2.3641753,-1.0001293,-0.96780107,-2.4340945,42.467871,171.43563)"
       gradientUnits="userSpaceOnUse"
       xlink:href="#d" /><linearGradient
       id="x"
       x1="6.2812"
       x2="14.312"
       y1="35.764"
       y2="35.764"
       gradientTransform="matrix(2.3641753,-1.0001293,-0.96780107,-2.4340945,42.467871,171.43563)"
       gradientUnits="userSpaceOnUse"><stop
         stop-color="#fff"
         offset="0"
         id="stop35" /><stop
         stop-color="#fff"
         stop-opacity="0"
         offset="1"
         id="stop37" /></linearGradient><linearGradient
       id="w"
       x1="5.324"
       x2="16.25"
       y1="55.63"
       y2="54.984"
       gradientTransform="matrix(2.3641753,-1.0001293,-0.96780107,-2.4340945,42.467871,171.43563)"
       gradientUnits="userSpaceOnUse"
       xlink:href="#b" /><linearGradient
       id="v"
       x1="15.688"
       x2="16.753"
       y1="48.891"
       y2="55.438"
       gradientTransform="matrix(2.3641753,-1.0001293,-0.96780107,-2.4340945,42.467871,171.43563)"
       gradientUnits="userSpaceOnUse"
       xlink:href="#b" /><linearGradient
       id="u"
       x1="15.688"
       x2="16.25"
       y1="48.891"
       y2="54.984"
       gradientTransform="matrix(2.3641753,-1.0001293,-0.96780107,-2.4340945,42.467871,171.43563)"
       gradientUnits="userSpaceOnUse"
       xlink:href="#b" /><linearGradient
       id="t"
       x1="15.214"
       x2="14.702"
       y1="58.94"
       y2="56.033"
       gradientTransform="matrix(2.3641753,-1.0001293,-0.96780107,-2.4340945,42.467871,171.43563)"
       gradientUnits="userSpaceOnUse"><stop
         offset="0"
         id="stop43" /><stop
         stop-opacity="0"
         offset="1"
         id="stop45" /></linearGradient><linearGradient
       id="s"
       x1="4.9107"
       x2="58.885"
       y1="44.649"
       y2="36.866"
       gradientTransform="matrix(2.4898079,-1.0532794,-1.0191779,-2.5633372,34.923798,145.7345)"
       gradientUnits="userSpaceOnUse"
       xlink:href="#b" /><linearGradient
       id="r"
       x1="4.9107"
       x2="58.885"
       y1="44.649"
       y2="36.866"
       gradientTransform="matrix(2.4898079,-1.0532794,-1.0191779,-2.5633372,34.941665,145.83178)"
       gradientUnits="userSpaceOnUse"
       xlink:href="#b" /><linearGradient
       id="q"
       x1="32.439"
       x2="33.05"
       y1="40"
       y2="42.763"
       gradientTransform="matrix(2.4898079,-1.0532794,-1.0191779,-2.5633372,38.014025,153.95822)"
       gradientUnits="userSpaceOnUse"><stop
         stop-color="#626262"
         offset="0"
         id="stop50" /><stop
         stop-color="#efefef"
         offset="1"
         id="stop52" /></linearGradient><linearGradient
       id="p"
       x1="4.5182"
       x2="18.827"
       y1="41.237"
       y2="38.016"
       gradientTransform="matrix(2.3641753,-1.0001293,-0.96780107,-2.4340945,42.467871,171.43563)"
       gradientUnits="userSpaceOnUse"><stop
         stop-color="#fff"
         stop-opacity="0"
         offset="0"
         id="stop55" /><stop
         stop-color="#fff"
         stop-opacity="0"
         offset=".18532"
         id="stop57" /><stop
         stop-color="#fff"
         stop-opacity=".33574"
         offset=".28107"
         id="stop59" /><stop
         stop-color="#fff"
         stop-opacity=".16968"
         offset=".45127"
         id="stop61" /><stop
         stop-color="#fff"
         stop-opacity="0"
         offset=".4794"
         id="stop63" /><stop
         stop-color="#fff"
         stop-opacity=".30686"
         offset=".6561"
         id="stop65" /><stop
         stop-color="#fff"
         stop-opacity="0"
         offset="1"
         id="stop67" /></linearGradient><linearGradient
       id="o"
       x1="36.992"
       x2="38.914"
       y1="42.161"
       y2="39.759"
       gradientTransform="matrix(2.4898079,-1.0532794,-1.0191779,-2.5633372,38.014025,153.95822)"
       gradientUnits="userSpaceOnUse"
       xlink:href="#d" /><linearGradient
       id="n"
       x1="82.312"
       x2="72.327"
       y1="61.875"
       y2="133.31"
       gradientTransform="matrix(0.89989311,-0.29780093,-0.28791062,-0.92658587,18.184739,140.31255)"
       gradientUnits="userSpaceOnUse"
       xlink:href="#a" /><linearGradient
       id="m"
       x1="82.312"
       x2="72.327"
       y1="61.875"
       y2="133.31"
       gradientTransform="matrix(0.89989311,-0.29780093,-0.28791062,-0.92658587,19.625264,144.9433)"
       gradientUnits="userSpaceOnUse"
       xlink:href="#a" /><linearGradient
       id="l"
       x1="82.312"
       x2="36.312"
       y1="61.875"
       y2="128.31"
       gradientTransform="matrix(0.89989311,-0.29780093,-0.28791062,-0.92658587,18.473387,141.23441)"
       gradientUnits="userSpaceOnUse"
       xlink:href="#a" /><linearGradient
       id="k"
       x1="34.562"
       x2="44.062"
       y1="99.375"
       y2="125.12"
       gradientTransform="matrix(0.89989311,-0.29780093,-0.28791062,-0.92658587,19.250485,143.73951)"
       gradientUnits="userSpaceOnUse"
       xlink:href="#a" /><linearGradient
       id="j"
       x1="39.812"
       x2="45.312"
       y1="79.125"
       y2="138.88"
       gradientTransform="matrix(0.89989311,-0.29780093,-0.28791062,-0.92658587,18.963195,142.80693)"
       gradientUnits="userSpaceOnUse"
       xlink:href="#a" /><linearGradient
       id="i"
       x1="74.062"
       x2="108.06"
       y1="85.125"
       y2="126.06"
       gradientTransform="matrix(0.89989311,-0.29780093,-0.28791062,-0.92658587,18.674547,141.88507)"
       gradientUnits="userSpaceOnUse"
       xlink:href="#a" /><linearGradient
       id="ab"
       x1="52.985"
       x2="113.22"
       y1="68.39"
       y2="49.39"
       gradientTransform="matrix(.82935 -.29897 -.29043 -.85441 20.883 137.14)"
       gradientUnits="userSpaceOnUse"><stop
         stop-color="#a90687"
         offset="0"
         id="stop77" /><stop
         stop-color="#a90687"
         stop-opacity="0"
         offset="1"
         id="stop79" /></linearGradient><linearGradient
       id="aa"
       x1="68.236"
       x2="70.711"
       y1="120.29"
       y2="86.634"
       gradientTransform="matrix(.85227 -.19735 .1918 .87799 -3.9216 19.413)"
       gradientUnits="userSpaceOnUse"><stop
         stop-color="#870050"
         offset="0"
         id="stop82" /><stop
         stop-color="#870050"
         stop-opacity="0"
         offset="1"
         id="stop84" /></linearGradient><linearGradient
       id="z"
       x1="92.146"
       x2="59.409"
       y1="-60.187"
       y2="214.47"
       gradientTransform="matrix(0.86852413,-0.2874218,-0.27787864,-0.8942903,20.370364,139.82172)"
       gradientUnits="userSpaceOnUse"><stop
         stop-color="#820046"
         offset=".15"
         id="stop87" /><stop
         stop-color="#820046"
         offset=".316"
         id="stop89" /><stop
         stop-color="#820046"
         offset=".6029"
         id="stop91" /><stop
         stop-color="#820046"
         offset=".8412"
         id="stop93" /><stop
         stop-color="#810148"
         offset="1"
         id="stop95" /></linearGradient><linearGradient
       id="h"
       x1="150.96"
       x2="112.03"
       y1="192.35"
       y2="137.27"
       gradientTransform="matrix(0.56254,0,0,0.56797,-14.991,-11.702)"
       gradientUnits="userSpaceOnUse"><stop
         stop-color="#ffd43b"
         offset="0"
         id="stop98" /><stop
         stop-color="#ffe873"
         offset="1"
         id="stop100" /></linearGradient><linearGradient
       id="g"
       x1="26.649"
       x2="135.67"
       y1="20.604"
       y2="114.4"
       gradientTransform="matrix(0.56254,0,0,0.56797,-14.991,-11.702)"
       gradientUnits="userSpaceOnUse"><stop
         stop-color="#5a9fd4"
         offset="0"
         id="stop103" /><stop
         stop-color="#306998"
         offset="1"
         id="stop105" /></linearGradient><radialGradient
       id="e"
       cx="61.519"
       cy="132.29"
       r="29.037"
       gradientTransform="matrix(1.7491e-8,-0.23995,1.0547,3.7915e-7,-83.701,142.46)"
       gradientUnits="userSpaceOnUse"><stop
         stop-color="#b8b8b8"
         stop-opacity=".49804"
         offset="0"
         id="stop108" /><stop
         stop-color="#7f7f7f"
         stop-opacity="0"
         offset="1"
         id="stop110" /></radialGradient><linearGradient
       inkscape:collect="always"
       xlink:href="#b"
       id="linearGradient1247"
       gradientUnits="userSpaceOnUse"
       gradientTransform="matrix(2.4898079,-1.0532794,-1.0191779,-2.5633372,38.014025,153.95822)"
       x1="4.9107"
       y1="44.649"
       x2="58.885"
       y2="36.866" /><linearGradient
       inkscape:collect="always"
       xlink:href="#b"
       id="linearGradient1249"
       gradientUnits="userSpaceOnUse"
       gradientTransform="matrix(2.4898079,-1.0532794,-1.0191779,-2.5633372,38.014025,153.95822)"
       x1="4.9107"
       y1="44.649"
       x2="58.885"
       y2="36.866" /><filter
       inkscape:collect="always"
       style="color-interpolation-filters:sRGB"
       id="filter1324"
       x="-0.16740582"
       y="-0.097558842"
       width="1.3348116"
       height="1.1951177"><feGaussianBlur
         inkscape:collect="always"
         stdDeviation="1.0536779"
         id="feGaussianBlur1326" /></filter></defs><path
     d="M 46.535643,114.74188 27.099892,14.998151 89.641084,2.6285057 c 1.850262,-0.3849833 3.604121,0.8889297 3.975429,2.7943516 L 109.47011,102.1303 c 0.3711,1.9055 -0.78526,3.69655 -2.6356,4.08147 z"
     fill="#753d53"
     id="path115"
     style="stroke-width:1.0752" /><path
     d="m 89.084583,4.9663096 c 5.446965,4.1043267 5.052442,4.4220666 5.455981,7.4733764 l -7.287395,2.685798 z"
     fill="url(#o)"
     fill-rule="evenodd"
     id="path117"
     style="fill:url(#o);stroke-width:1.0752" /><path
     d="m 49.153166,122.41533 -6.207903,1.34004 -1.115201,-0.0513 -0.826905,0.4705 -6.879341,1.48505 c -1.318915,0.27454 -2.607804,-0.6083 -2.872453,-1.9665 l -3.057641,-7.69 -17.978889,-93.450783 c -0.2927938,-2.366362 0.738163,-4.633233 2.698341,-4.893279 l 14.235568,-2.659563 3.42749,7.659017 c 0.960701,0.167916 1.763174,0.929286 1.967016,1.975289 l 18.445235,94.852749 c 0.264616,1.35823 -0.516144,2.65422 -1.835044,2.92862 z"
     id="path119"
     style="stroke-width:1.0752" /><path
     d="m 49.462325,121.74588 -6.216443,1.2969 -1.141908,-0.05 -0.826089,0.52718 -6.837665,1.47087 c -1.318915,0.27454 -2.671193,-0.59871 -2.93584,-1.95699 L 28.449764,115.35138 10.766465,24.555397 c 0.440964,1.36203 3.881542,3.966939 5.528971,3.703367 l 15.764144,-3.1145 c 4.111077,31.781048 11.019759,63.927456 17.403056,96.602076 z"
     fill="url(#p)"
     id="path121"
     style="fill:url(#p);stroke-width:1.0752" /><path
     d="M 91.378476,10.476614 89.201968,4.9485432 13.968978,19.680573 c -3.031911,0.402094 -1.271071,6.584345 2.105183,5.862627 z"
     fill="url(#q)"
     fill-rule="evenodd"
     id="path123"
     style="fill:url(#q);stroke-width:1.0752" /><path
     d="m 27.168138,15.061261 62.4142,-12.4482891 c 1.764821,-0.3671909 3.449763,0.7916226 3.92301,2.551393 C 92.803533,3.8863322 91.373879,3.1075067 89.900744,3.4139722 L 27.331458,15.869997 Z"
     fill-opacity="0.47561"
     id="path125"
     style="stroke-width:1.0752" /><path
     d="M 27.246869,15.216072 89.730609,2.9040662 C 91.495538,2.5368781 93.180373,3.6956672 93.653727,5.455462 92.951912,4.1774293 91.522258,3.3986038 90.049231,3.7050721 L 27.672225,16.170477 Z"
     fill="url(#r)"
     opacity="0.4918"
     id="path127"
     style="fill:url(#r);stroke-width:1.0752" /><path
     d="M 27.245653,15.221418 89.712685,2.8089421 C 91.477614,2.4417541 93.162449,3.6005432 93.635803,5.360338 92.933988,4.0823053 91.305345,2.8028146 89.83221,3.1092801 L 27.496705,15.795198 Z"
     fill="url(#s)"
     opacity="0.34426"
     id="path129"
     style="fill:url(#s);stroke-width:1.0752" /><path
     d="M 12.044081,22.732993 C 13.843867,22.137402 90.104304,7.2850752 90.104304,7.2850752"
     fill="none"
     opacity="0.39754"
     stroke="url(#i)"
     stroke-width="0.095894"
     id="path131"
     style="stroke:url(#i)" /><path
     d="M 12.767385,23.650199 C 14.567171,23.054608 90.535872,8.2526586 90.535872,8.2526586"
     fill="none"
     opacity="0.39754"
     stroke="url(#j)"
     stroke-width="0.095894"
     id="path133"
     style="stroke:url(#j)" /><path
     d="M 13.362357,24.295123 C 15.162143,23.699532 90.824379,9.1798948 90.824379,9.1798948"
     fill="none"
     opacity="0.39754"
     stroke="url(#k)"
     stroke-width="0.095894"
     id="path135"
     style="stroke:url(#k)" /><path
     d="M 12.372636,21.532722 C 14.172422,20.937131 89.703825,6.2806673 89.703825,6.2806673"
     fill="none"
     opacity="0.39754"
     stroke="url(#l)"
     stroke-width="0.095894"
     id="path137"
     style="stroke:url(#l)" /><path
     d="M 14.042144,25.068129 C 15.84193,24.472538 90.855758,9.9874054 90.855758,9.9874054"
     fill="none"
     opacity="0.39754"
     stroke="url(#m)"
     stroke-width="0.095894"
     id="path139"
     style="stroke:url(#m)" /><path
     d="M 12.6963,20.314037 C 14.496086,19.718446 89.416364,5.3545343 89.416364,5.3545343"
     fill="none"
     opacity="0.39754"
     stroke="url(#n)"
     stroke-width="0.095894"
     id="path141"
     style="stroke:url(#n)" /><path
     d="m 27.168138,15.061261 62.4142,-12.4482891 c 1.764821,-0.3671909 3.449763,0.7916226 3.92301,2.551393 C 92.646909,3.3209606 91.159747,2.6833454 89.68672,2.9898137 L 27.296649,15.420455 Z"
     fill-opacity="0.47561"
     opacity="0.69"
     id="path143"
     style="stroke-width:1.0752" /><path
     d="M 91.378476,10.476614 89.201968,4.9485432 13.968978,19.680573 c -3.031911,0.402094 -1.271071,6.584345 2.105183,5.862627 z"
     fill="url(#t)"
     fill-rule="evenodd"
     id="path145"
     style="fill:url(#t);stroke-width:1.0752" /><path
     d="m 12.399345,24.838672 c 0.28291,0.641437 1.900632,1.723572 2.3413,1.764142 5.150705,-1.082932 10.301306,-2.165975 15.451474,-3.248922 0.0818,0.350432 0.163608,0.700885 0.245411,1.051338 -5.23465,1.08889 -10.4693,2.177781 -15.703628,3.266679 -0.607039,0.176971 -1.949643,-1.879642 -2.334794,-2.8332 z"
     fill="url(#u)"
     fill-rule="evenodd"
     opacity="0.42213"
     id="path147"
     style="fill:url(#u);stroke-width:1.0752" /><path
     d="m 12.399345,24.838672 c 0.28291,0.641437 2.36727,1.746005 2.807935,1.786683 5.150705,-1.082933 9.579474,-1.986271 14.730394,-3.069198 0.0818,0.350454 0.03739,0.505186 0.119209,0.855628 -5.23465,1.08889 -8.830815,1.69079 -14.485007,2.900359 -1.562388,0.334246 -2.787339,-1.519826 -3.172598,-2.473388 z"
     fill="url(#v)"
     fill-rule="evenodd"
     opacity="0.42213"
     id="path149"
     style="fill:url(#v);stroke-width:1.0752" /><path
     d="m 12.399345,24.838672 c 0.11548,-0.05318 0.314749,0.311882 0.53324,0.533897 0.631709,0.64186 1.662744,1.412902 2.509838,1.153363 5.150705,-1.082932 9.344307,-1.886752 14.495445,-2.96978 0.0818,0.350453 -0.07515,0.330669 0.0067,0.681101 -5.23465,1.08889 -9.230891,1.68528 -14.465541,2.77417 -1.091536,0.180783 -2.166641,-0.659775 -2.74873,-1.487077 -0.169018,-0.24023 -0.404623,-0.658537 -0.330487,-0.685695 z"
     fill="url(#w)"
     fill-rule="evenodd"
     opacity="0.42213"
     id="path151"
     style="fill:url(#w);stroke-width:1.0752" /><path
     d="M 40.936778,123.63962 22.71223,24.380694 23.837326,24.171326 41.767394,123.17725 Z"
     fill="url(#x)"
     opacity="0.36885"
     id="path153"
     style="fill:url(#x);stroke-width:1.0752" /><path
     d="m 48.689416,117.98246 -6.216443,1.29691 -1.141908,-0.0501 -0.826089,0.52718 -6.837665,1.47088 c -1.318915,0.27453 -2.671193,-0.59873 -2.935841,-1.95699 L 27.676858,111.58786 10.76661,24.549915 c 0.440964,1.362031 3.207089,4.189412 5.528971,3.703367 l 15.764143,-3.1145 c 4.111078,31.781048 10.245634,60.169387 16.628931,92.844008 z"
     fill="url(#y)"
     id="path155"
     style="fill:url(#y);stroke-width:1.0752" /><path
     d="M 48.940006,122.46348 30.157924,22.689681 92.543837,10.253552 c 1.850261,-0.3849617 3.60412,0.88894 3.975321,2.794349 L 111.97138,105.8931 c 0.3711,1.9055 -0.78526,3.69656 -2.63549,4.08148 z"
     fill="url(#z)"
     id="path157"
     style="fill:url(#z);stroke-width:1.0752" /><path
     d="m 30.149747,22.714204 62.4142,-12.448289 c 1.764928,-0.367167 3.449764,0.7916 3.923118,2.551395 -0.701783,-1.278032 -2.131469,-2.056858 -3.604604,-1.750393 L 30.313174,23.522943 Z"
     fill-opacity="0.47561"
     id="path159"
     style="stroke-width:1.0752" /><path
     d="m 30.320276,23.343617 62.48374,-12.312006 c 1.764928,-0.367167 3.449871,0.791625 3.923118,2.551395 -0.701783,-1.278031 -2.131469,-2.056858 -3.604604,-1.750392 L 30.5331,24.644123 Z"
     fill="url(#c)"
     opacity="0.4918"
     id="path161"
     style="fill:url(#linearGradient1247);stroke-width:1.0752" /><path
     d="M 49.009642,121.86299 C 48.027412,122.04925 38.790746,77.950572 28.422558,23.277369 l 3.619366,-0.686258 c 10.354101,54.677134 17.949464,99.086029 16.96793,99.271999 z"
     fill="url(#f)"
     id="path163"
     style="fill:url(#f);stroke-width:1.0752" /><path
     d="M 30.141885,23.622858 92.802941,11.031582 c 1.764928,-0.367166 3.449871,0.791626 3.923118,2.551396 -0.701783,-1.278032 -2.330566,-2.557526 -3.803593,-2.251058 L 30.22224,24.184602 Z"
     fill="url(#c)"
     opacity="0.34426"
     id="path165"
     style="fill:url(#linearGradient1249);stroke-width:1.0752" /><path
     d="M 30.46322,23.429135 92.802969,11.030507 c 1.764929,-0.367166 3.449871,0.791626 3.923118,2.551396 -0.701782,-1.278032 -2.183603,-2.245385 -3.656738,-1.938919 L 30.628516,24.285249 Z"
     fill="url(#c)"
     opacity="0.34426"
     id="path169"
     style="fill:url(#c);stroke-width:1.0752" /><path
     d="m 30.149747,22.714204 62.4142,-12.448289 c 1.764928,-0.367167 3.449764,0.7916 3.923118,2.551395 -0.85844,-1.843404 -2.345494,-2.481016 -3.818629,-2.174551 l -62.39007,12.430642 z"
     fill-opacity="0.47561"
     id="path171"
     style="stroke-width:1.0752" /><path
     d="m 109.9578,109.82343 c -0.208,0.0895 -0.46389,0.15712 -0.69519,0.20522 l -60.335115,12.44834 -0.141186,-0.51785 60.295851,-12.387 c 1.85025,-0.38478 3.03708,-2.24347 2.66577,-4.14887 l 0.21171,0.53246 c 0.32471,1.66733 -0.545,3.24084 -2.00085,3.86764 z"
     opacity="0.34836"
     id="path173"
     style="stroke-width:1.0752" /><path
     d="m 25.979325,103.49706 2.476179,12.52486 3.287852,8.13256 1.030877,0.96645 2.035195,0.0207 6.509016,-1.37081 0.448726,-0.3094 6.923604,-1.1939 -4.138707,-22.340367 z"
     fill="url(#ac)"
     fill-rule="evenodd"
     id="path177"
     style="fill:url(#ac);stroke-width:1.0752" /><path
     d="m 109.9578,109.82343 c -0.208,0.0895 -0.46389,0.15712 -0.69519,0.20522 l -60.335115,12.44834 -0.231801,-0.99244 60.294776,-12.38702 c 1.85025,-0.38478 3.1277,-1.7689 2.75639,-3.6743 l 0.2117,0.53246 c 0.32471,1.66733 -0.54499,3.24084 -2.00085,3.86764 z"
     opacity="0.34836"
     id="path179"
     style="stroke-width:1.0752" /><g
     id="path5124"
     inkscape:transform-center-x="2.780424"
     inkscape:transform-center-y="-1.99322"
     transform="translate(0,0.69978106)" /><g
     id="path5176"
     inkscape:transform-center-x="-2.780424"
     inkscape:transform-center-y="1.99322"
     transform="translate(0,0.69978106)" /><path
     id="path1224"
     style="opacity:0.63121408;fill:none;fill-opacity:1;stroke:#ffffff;stroke-width:8;stroke-linecap:round;stroke-linejoin:round;stroke-dasharray:none;stroke-opacity:1;filter:url(#filter1324)"
     d="m 50.946928,56.265374 8.46969,43.930316 M 89.219597,52.77375 a 19.5,19.5 0 0 1 -19.5,19.5 19.5,19.5 0 0 1 -19.5,-19.5 19.5,19.5 0 0 1 19.5,-19.5 19.5,19.5 0 0 1 19.5,19.5 z" /><path
     id="path14212"
     style="color:#000000;fill:#9fd4ff;fill-opacity:1;stroke-width:1.13894;stroke-linecap:round;stroke-linejoin:round;-inkscape-stroke:none"
     d="m 69.922493,30.617073 c -5.274497,-0.05015 -10.483991,1.787813 -14.608291,5.321003 -4.731898,4.053709 -7.476081,9.8632 -7.712339,15.947439 0.528368,-0.510309 1.075021,-1.048362 1.71064,-1.670599 0.330024,-0.322913 0.824557,-0.411693 1.245719,-0.222451 1.68206,0.757837 2.06954,0.980595 2.309032,1.121149 0.414308,-4.294715 2.462954,-8.335884 5.832638,-11.222602 4.593045,-3.93476 10.924015,-5.117945 16.628135,-3.107626 5.651777,1.991862 9.814453,6.817292 10.971233,12.688547 l -1.493609,0.400756 c -1.050355,0.228941 -1.010442,1.631418 -0.03575,2.085051 l 4.083114,2.715074 c 0.43314,0.201585 0.946338,0.104849 1.279093,-0.238022 l 3.421057,-4.610581 c 0.761843,-1.026752 -0.08082,-1.866856 -1.023354,-1.680993 -0.381026,0.07514 -1.143091,0.225404 -1.143091,0.225404 C 90.238756,42.675182 86.919694,37.731227 82.248476,34.514437 80.66319,33.422931 78.92126,32.530378 77.058719,31.873956 74.730546,31.053432 72.320023,30.639909 69.922524,30.617114 Z M 52.235495,58.461136 c -0.278478,-0.03501 -0.560731,-0.026 -0.836412,0.0267 -1.451405,0.278473 -2.402424,1.680604 -2.124397,3.132094 l 7.483217,39.07557 c 0.278475,1.4514 1.680605,2.40242 3.132096,2.12439 1.452309,-0.27742 2.404551,-1.67988 2.126622,-3.132095 L 54.531179,60.612227 c -0.218592,-1.138548 -1.14534,-2.006926 -2.295684,-2.151091 z"
     sodipodi:nodetypes="csccccsscccccssccssccccccccc" /><path
     id="path1107"
     style="color:#000000;fill:#ffec97;fill-opacity:1;stroke-width:1.132;stroke-linecap:round;stroke-linejoin:round;-inkscape-stroke:none"
     d="m 91.793982,53.93441 c -0.474895,0.463022 -0.966933,0.951482 -1.531922,1.50459 -0.330046,0.322906 -0.824115,0.410846 -1.245265,0.221604 -2.015755,-0.908154 -2.210199,-1.063699 -2.470245,-1.209902 -0.724206,7.290123 -6.150796,13.500979 -13.733588,14.91815 -4.41128,0.82441 -8.964607,-0.138167 -12.666812,-2.674458 -3.495409,-2.39462 -5.953365,-6.005058 -6.911172,-10.113508 l 1.32166,-0.351844 c 1.456851,-0.387831 0.558801,-1.454656 -0.10496,-1.981264 l -3.64904,-2.895011 c -0.432442,-0.201428 -0.944959,-0.107547 -1.277927,0.234081 l -3.272166,4.675318 c -0.773153,0.796789 -0.516549,1.947311 0.568928,1.714089 l 1.327938,-0.29383 c 1.238934,5.404051 4.462325,10.16182 9.054004,13.307471 4.839437,3.315382 10.799633,4.574095 16.565952,3.496418 10.208594,-1.907869 17.481974,-10.60784 18.024626,-20.551883 z"
     sodipodi:nodetypes="cccccscsscccccscsc" /></svg>
