<?xml version="1.0" encoding="UTF-8"?>
<svg version="1.0" viewBox="0 0 128 128" xml:space="preserve" xmlns="http://www.w3.org/2000/svg" xmlns:cc="http://creativecommons.org/ns#" xmlns:dc="http://purl.org/dc/elements/1.1/" xmlns:rdf="http://www.w3.org/1999/02/22-rdf-syntax-ns#" xmlns:xlink="http://www.w3.org/1999/xlink"><metadata><rdf:RDF><cc:Work rdf:about=""><dc:format>image/svg+xml</dc:format><dc:type rdf:resource="http://purl.org/dc/dcmitype/StillImage"/></cc:Work></rdf:RDF></metadata><defs><linearGradient id="a"><stop offset="0"/><stop stop-color="#fff" offset="1"/></linearGradient><linearGradient id="d"><stop offset="0"/><stop stop-opacity=".59928" offset=".25"/><stop stop-opacity=".27798" offset=".5"/><stop stop-opacity="0" offset="1"/></linearGradient><linearGradient id="b"><stop stop-color="#fff" offset="0"/><stop stop-color="#fff" stop-opacity="0" offset="1"/></linearGradient><linearGradient id="ac" x1="28.947" x2="28.947" y1="125.9" y2="104.96" gradientTransform="matrix(.85227 -.19735 .1918 .87799 -3.9216 19.413)" gradientUnits="userSpaceOnUse"><stop offset="0"/><stop stop-opacity="0" offset="1"/></linearGradient><linearGradient id="c" x1="4.9107" x2="58.885" y1="44.649" y2="36.866" gradientTransform="matrix(2.289 -1.0404 -1.0105 -2.3582 42.535 146.99)" gradientUnits="userSpaceOnUse" xlink:href="#b"/><radialGradient id="f" cx="-36.858" cy="75.225" r=".97227" gradientTransform="matrix(.81038 -.17145 -19.485 -95.069 1527.6 7170)" gradientUnits="userSpaceOnUse"><stop offset="0"/><stop stop-opacity="0" offset="1"/></radialGradient><linearGradient id="y" x1="20.607" x2="14.044" y1="54.213" y2="16.438" gradientTransform="matrix(2.1735 -.9879 -.95956 -2.2393 47.105 163.13)" gradientUnits="userSpaceOnUse" xlink:href="#d"/><linearGradient id="x" x1="6.2812" x2="14.312" y1="35.764" y2="35.764" gradientTransform="matrix(2.1735 -.9879 -.95956 -2.2393 47.105 163.13)" gradientUnits="userSpaceOnUse"><stop stop-color="#fff" offset="0"/><stop stop-color="#fff" stop-opacity="0" offset="1"/></linearGradient><linearGradient id="w" x1="5.324" x2="16.25" y1="55.63" y2="54.984" gradientTransform="matrix(2.1735 -.9879 -.95956 -2.2393 47.105 163.13)" gradientUnits="userSpaceOnUse" xlink:href="#b"/><linearGradient id="v" x1="15.688" x2="16.753" y1="48.891" y2="55.438" gradientTransform="matrix(2.1735 -.9879 -.95956 -2.2393 47.105 163.13)" gradientUnits="userSpaceOnUse" xlink:href="#b"/><linearGradient id="u" x1="15.688" x2="16.25" y1="48.891" y2="54.984" gradientTransform="matrix(2.1735 -.9879 -.95956 -2.2393 47.105 163.13)" gradientUnits="userSpaceOnUse" xlink:href="#b"/><linearGradient id="t" x1="15.214" x2="14.702" y1="58.94" y2="56.033" gradientTransform="matrix(2.1735 -.9879 -.95956 -2.2393 47.105 163.13)" gradientUnits="userSpaceOnUse"><stop offset="0"/><stop stop-opacity="0" offset="1"/></linearGradient><linearGradient id="s" x1="4.9107" x2="58.885" y1="44.649" y2="36.866" gradientTransform="matrix(2.289 -1.0404 -1.0105 -2.3582 39.46 139.42)" gradientUnits="userSpaceOnUse" xlink:href="#b"/><linearGradient id="r" x1="4.9107" x2="58.885" y1="44.649" y2="36.866" gradientTransform="matrix(2.289 -1.0404 -1.0105 -2.3582 39.479 139.51)" gradientUnits="userSpaceOnUse" xlink:href="#b"/><linearGradient id="q" x1="32.439" x2="33.05" y1="40" y2="42.763" gradientTransform="matrix(2.289 -1.0404 -1.0105 -2.3582 42.535 146.99)" gradientUnits="userSpaceOnUse"><stop stop-color="#626262" offset="0"/><stop stop-color="#efefef" offset="1"/></linearGradient><linearGradient id="p" x1="4.5182" x2="18.827" y1="41.237" y2="38.016" gradientTransform="matrix(2.1735 -.9879 -.95956 -2.2393 47.105 163.13)" gradientUnits="userSpaceOnUse"><stop stop-color="#fff" stop-opacity="0" offset="0"/><stop stop-color="#fff" stop-opacity="0" offset=".18532"/><stop stop-color="#fff" stop-opacity=".33574" offset=".28107"/><stop stop-color="#fff" stop-opacity=".16968" offset=".45127"/><stop stop-color="#fff" stop-opacity="0" offset=".4794"/><stop stop-color="#fff" stop-opacity=".30686" offset=".6561"/><stop stop-color="#fff" stop-opacity="0" offset="1"/></linearGradient><linearGradient id="o" x1="36.992" x2="38.914" y1="42.161" y2="39.759" gradientTransform="matrix(2.289 -1.0404 -1.0105 -2.3582 42.535 146.99)" gradientUnits="userSpaceOnUse" xlink:href="#d"/><linearGradient id="n" x1="82.312" x2="72.327" y1="61.875" y2="133.31" gradientTransform="matrix(.82935 -.29897 -.29043 -.85441 23.764 134.79)" gradientUnits="userSpaceOnUse" xlink:href="#a"/><linearGradient id="m" x1="82.312" x2="72.327" y1="61.875" y2="133.31" gradientTransform="matrix(.82935 -.29897 -.29043 -.85441 25.217 139.06)" gradientUnits="userSpaceOnUse" xlink:href="#a"/><linearGradient id="l" x1="82.312" x2="36.312" y1="61.875" y2="128.31" gradientTransform="matrix(.82935 -.29897 -.29043 -.85441 24.055 135.64)" gradientUnits="userSpaceOnUse" xlink:href="#a"/><linearGradient id="k" x1="34.562" x2="44.062" y1="99.375" y2="125.12" gradientTransform="matrix(.82935 -.29897 -.29043 -.85441 24.839 137.95)" gradientUnits="userSpaceOnUse" xlink:href="#a"/><linearGradient id="j" x1="39.812" x2="45.312" y1="79.125" y2="138.88" gradientTransform="matrix(.82935 -.29897 -.29043 -.85441 24.549 137.09)" gradientUnits="userSpaceOnUse" xlink:href="#a"/><linearGradient id="i" x1="74.062" x2="108.06" y1="85.125" y2="126.06" gradientTransform="matrix(.82935 -.29897 -.29043 -.85441 24.258 136.24)" gradientUnits="userSpaceOnUse" xlink:href="#a"/><linearGradient id="ab" x1="52.985" x2="113.22" y1="68.39" y2="49.39" gradientTransform="matrix(.82935 -.29897 -.29043 -.85441 20.883 137.14)" gradientUnits="userSpaceOnUse"><stop stop-color="#a90687" offset="0"/><stop stop-color="#a90687" stop-opacity="0" offset="1"/></linearGradient><linearGradient id="aa" x1="68.236" x2="70.711" y1="120.29" y2="86.634" gradientTransform="matrix(.85227 -.19735 .1918 .87799 -3.9216 19.413)" gradientUnits="userSpaceOnUse"><stop stop-color="#870050" offset="0"/><stop stop-color="#870050" stop-opacity="0" offset="1"/></linearGradient><linearGradient id="z" x1="92.146" x2="59.409" y1="-60.187" y2="214.47" gradientTransform="matrix(.80044 -.28855 -.28031 -.82463 25.784 134.28)" gradientUnits="userSpaceOnUse"><stop stop-color="#820046" offset=".15"/><stop stop-color="#820046" offset=".316"/><stop stop-color="#820046" offset=".6029"/><stop stop-color="#820046" offset=".8412"/><stop stop-color="#810148" offset="1"/></linearGradient><linearGradient id="h" x1="150.96" x2="112.03" y1="192.35" y2="137.27" gradientTransform="matrix(.56254 0 0 .56797 -14.991 -11.702)" gradientUnits="userSpaceOnUse"><stop stop-color="#ffd43b" offset="0"/><stop stop-color="#ffe873" offset="1"/></linearGradient><linearGradient id="g" x1="26.649" x2="135.67" y1="20.604" y2="114.4" gradientTransform="matrix(.56254 0 0 .56797 -14.991 -11.702)" gradientUnits="userSpaceOnUse"><stop stop-color="#5a9fd4" offset="0"/><stop stop-color="#306998" offset="1"/></linearGradient><radialGradient id="e" cx="61.519" cy="132.29" r="29.037" gradientTransform="matrix(1.7491e-8 -.23995 1.0547 3.7915e-7 -83.701 142.46)" gradientUnits="userSpaceOnUse"><stop stop-color="#b8b8b8" stop-opacity=".49804" offset="0"/><stop stop-color="#7f7f7f" stop-opacity="0" offset="1"/></radialGradient></defs><path d="m49.495 110.32-20.519-92.258 57.843-13.036c1.7108-0.40336 3.3727 0.73798 3.7647 2.5004l17.114 89.523c0.39181 1.7625-0.63933 3.4561-2.3502 3.8594z" fill="#753d53"/><path d="m86.359 7.2132c5.165 3.6822 4.806 3.9873 5.2561 6.8143l-6.7094 2.676z" fill="url(#o)" fill-rule="evenodd"/><path d="m52.117 117.39-5.7388 1.3983-1.0381-0.0203-0.75725 0.45775-6.3595 1.5496c-1.2195 0.28763-2.4395-0.50153-2.7189-1.7578l-3.0316-7.0746-19.01-86.443c-0.33032-2.1929 0.57254-4.3258 2.3886-4.6157l13.17-2.8222 3.3747 7.0367c0.89732 0.13253 1.6621 0.8207 1.8773 1.7882l19.478 87.735c0.27937 1.2563-0.41471 2.4804-1.6342 2.7679z"/><path d="m52.388 116.76-5.7478 1.3584-1.0629-0.0185-0.7551 0.51042-6.3211 1.5354c-1.2195 0.28763-2.4982-0.49106-2.7776-1.7474l-3.0286-7.0676-18.67-83.982c0.44342 1.2555 3.7062 3.5929 5.2314 3.3074l14.58-3.2827c4.6025 29.447 11.815 59.165 18.552 89.387z" fill="url(#p)"/><path d="m88.627 12.28-2.1593-5.0862-69.585 15.544c-2.809 0.44828-1.0201 6.1529 2.1012 5.399z" fill="url(#q)" fill-rule="evenodd"/><path d="m29.041 18.119 57.723-13.106c1.6318-0.38472 3.2268 0.6513 3.71 2.2758-0.68388-1.171-2.0322-1.86-3.3943-1.5389l-57.867 13.117z" fill-opacity=".47561"/><path d="m29.118 18.261 57.791-12.981c1.6319-0.38472 3.2268 0.65128 3.7101 2.2758-0.68388-1.171-2.0322-1.86-3.3942-1.5389l-57.688 13.121z" fill="url(#r)" opacity=".4918"/><path d="m29.117 18.266 57.773-13.074c1.6319-0.38472 3.2268 0.65128 3.7101 2.2758-0.68388-1.171-2.2295-2.3206-3.5916-1.9995l-57.644 13.325z" fill="url(#s)" opacity=".34426"/><path d="m15.168 25.623c1.6587-0.59793 72.196-16.279 72.196-16.279" fill="none" opacity=".39754" stroke="url(#i)" stroke-width=".089187"/><path d="m15.863 26.458c1.6587-0.59793 71.926-16.225 71.926-16.225" fill="none" opacity=".39754" stroke="url(#j)" stroke-width=".089187"/><path d="m16.432 27.043c1.6587-0.59793 71.648-15.955 71.648-15.955" fill="none" opacity=".39754" stroke="url(#k)" stroke-width=".089187"/><path d="m15.444 24.499c1.6587-0.59793 71.523-16.079 71.523-16.079" fill="none" opacity=".39754" stroke="url(#l)" stroke-width=".089187"/><path d="m17.083 27.745c1.6587-0.59793 71.046-15.907 71.046-15.907" fill="none" opacity=".39754" stroke="url(#m)" stroke-width=".089187"/><path d="m15.715 23.358c1.6587-0.59793 70.962-15.792 70.962-15.792" fill="none" opacity=".39754" stroke="url(#n)" stroke-width=".089187"/><path d="m29.041 18.119 57.723-13.106c1.6318-0.38472 3.2268 0.6513 3.71 2.2758-0.84338-1.6928-2.2417-2.2491-3.6037-1.928l-57.701 13.089z" fill-opacity=".47561" opacity=".69"/><path d="m88.627 12.28-2.1593-5.0862-69.585 15.544c-2.809 0.44828-1.0201 6.1529 2.1012 5.399z" fill="url(#t)" fill-rule="evenodd"/><path d="m15.55 27.572c0.27878 0.58942 1.8094 1.5558 2.2201 1.5827 4.7622-1.1333 9.5243-2.2667 14.286-3.4 0.08466 0.3238 0.16932 0.64762 0.25398 0.97144-4.8401 1.1409-9.6802 2.2818-14.52 3.4227-0.56004 0.17944-1.8588-1.6997-2.2403-2.5768z" fill="url(#u)" fill-rule="evenodd" opacity=".42213"/><path d="m15.55 27.572c0.27878 0.58942 2.2438 1.5652 2.6545 1.5922 4.7622-1.1333 8.8576-2.0819 13.62-3.2152 0.08466 0.32382 0.04717 0.46877 0.13184 0.79258-4.8401 1.1409-8.1688 1.7888-13.396 3.0522-1.4444 0.34912-2.6288-1.3446-3.0104-2.2217z" fill="url(#v)" fill-rule="evenodd" opacity=".42213"/><path d="m15.55 27.572c0.10606-0.05228 0.30029 0.28224 0.50888 0.48329 0.60308 0.58125 1.5806 1.2728 2.3618 1.0107 4.7622-1.1333 8.6414-1.9836 13.404-3.117 0.08466 0.32382-0.06175 0.30928 0.02291 0.63308-4.8401 1.1409-8.5409 1.7935-13.381 2.9344-1.0104 0.19488-2.0306-0.56022-2.5921-1.3151-0.16304-0.2192-0.39236-0.60233-0.3241-0.6294z" fill="url(#w)" fill-rule="evenodd" opacity=".42213"/><path d="m44.508 118.73-19.381-91.837 1.0409-0.22228 19.101 91.609z" fill="url(#x)" opacity=".36885"/><path d="m51.577 113.28-5.7478 1.3584-1.0629-0.0185-0.7551 0.51042-6.3211 1.5354c-1.2195 0.28763-2.4982-0.49107-2.7776-1.7474l-3.0286-7.0677-17.859-80.507c0.44342 1.2555 3.0846 3.8163 5.2314 3.3074l14.58-3.2827c4.6025 29.447 11.003 55.69 17.74 85.912z" fill="url(#y)"/><path d="m51.92 117.44-19.912-92.302 57.697-13.094c1.7108-0.40334 3.3727 0.73799 3.7646 2.5004l16.646 85.942c0.39181 1.7625-0.63932 3.4561-2.3501 3.8594z" fill="url(#z)"/><path d="m32.001 25.161 57.723-13.106c1.6319-0.3847 3.2268 0.65128 3.7101 2.2758-0.68385-1.171-2.0322-1.86-3.3943-1.5389l-57.867 13.117z" fill-opacity=".47561"/><path d="m32.175 25.742 57.791-12.981c1.6319-0.3847 3.2269 0.6513 3.7101 2.2758-0.68385-1.171-2.0322-1.86-3.3943-1.5389l-57.877 13.448z" fill="url(#c)" opacity=".4918"/><path d="m51.97 116.88c-0.90864 0.19728-10.579-40.576-21.561-91.153l3.3482-0.7269c10.969 50.581 19.121 91.683 18.213 91.88z" fill="url(#f)"/><path d="m32.016 26.006 57.949-13.245c1.6319-0.3847 3.2269 0.6513 3.7101 2.2758-0.68385-1.171-2.2296-2.3206-3.5916-1.9995l-57.979 13.489z" fill="url(#c)" opacity=".34426"/><path d="m51.92 117.44-19.912-92.302 57.697-13.094c1.7108-0.40334 3.3727 0.73799 3.7646 2.5004l16.646 85.942c0.39181 1.7625-0.63932 3.4561-2.3501 3.8594z" fill="url(#aa)"/><path d="m32.31 25.818 57.655-13.058c1.6319-0.3847 3.2269 0.6513 3.7101 2.2758-0.68385-1.171-2.0853-2.034-3.4474-1.7129l-57.743 13.287z" fill="url(#c)" opacity=".34426"/><path d="m32.001 25.161 57.723-13.106c1.6319-0.3847 3.2268 0.65128 3.7101 2.2758-0.84338-1.6928-2.2416-2.2491-3.6037-1.928l-57.701 13.089z" fill-opacity=".47561"/><path d="m108.34 104.19c-0.19118 0.0883-0.42743 0.15747-0.6413 0.20787l-55.79 13.055-0.14398-0.478 55.755-12.997c1.7108-0.40317 2.7686-2.1604 2.3766-3.9228l0.2099 0.48985c0.34283 1.5422-0.42713 3.0265-1.7653 3.645z" opacity=".34836"/><path d="m100.17 83.719c-3.3771-2.0446-6.7447-4.1067-10.014-6.3315-8.9885-6.4167-17.505-13.487-25.086-21.64-4.1269-4.4416-8.0668-9.0503-11.999-13.665-6.0298-4.6524-12.096-9.2533-18.206-13.796-0.74913-0.56561-1.494-1.1438-2.2421-1.7185l1.7993-0.40462c0.94474 0.77293 1.8903 1.5433 2.837 2.3108 4.3167 3.4375 8.6452 6.8605 12.973 10.283-2.8028-3.2797-5.6255-6.5447-8.5281-9.7364-0.80212-0.80917-2.9542-2.4248-4.1123-3.5789l2.5994-0.59071c1.4809 0.9994 2.5028 2.5624 4.1451 4.4172 3.5879 4.4804 7.1613 8.9633 10.812 13.376 4.3854 3.4648 8.7701 6.9287 13.151 10.4 9.6084 7.7092 19.402 15.191 30.273 20.828l0.14687 0.91524c-11.463-5.8271-21.652-13.801-31.746-21.848-3.1088-2.4546-6.2238-4.8998-9.3493-7.3308 2.9501 3.4988 5.9625 6.9438 9.0882 10.294 7.7323 8.2064 16.439 15.274 25.63 21.644 2.4703 1.6784 5.0153 3.2303 7.5925 4.7251zm-3.564-21.959c-2.6028-4.1822-5.3897-8.24-8.4522-12.109-6.9754-9.1606-13.996-18.325-21.817-26.746-0.99996-1.0285-3.0598-2.4211-3.6624-3.1546l1.3731-0.30998c0.43046 0.10212 0.95859 0.2465 1.6099 0.44294l-1.5076-0.468 0.68082-0.15494c1.8087 0.58007 2.4779 1.7711 4.3145 3.9153 7.1216 8.5772 13.722 17.597 20.305 26.614 2.4902 3.2253 4.7463 6.6073 6.8489 10.09z" fill="url(#ab)"/><path d="m30.107 100.37 2.6097 11.584 3.2565 7.4804 0.98217 0.87323 1.8927-0.0307 6.018-1.4343 0.4096-0.29867 6.4078-1.28-4.3964-20.669z" fill="url(#ac)" fill-rule="evenodd"/><path d="m108.34 104.19c-0.19118 0.0883-0.42743 0.15747-0.6413 0.20787l-55.79 13.055-0.23988-0.91701 55.754-12.997c1.7108-0.40317 2.8645-1.7214 2.4725-3.4838l0.2099 0.48985c0.34283 1.5422-0.42713 3.0265-1.7653 3.645z" opacity=".34836"/><path d="m66.348 85.456 4.7055-1.0896c4.9078-1.1365 8.354-3.4486 10.338-6.9364 2.0013-3.4917 2.414-7.929 1.2382-13.312-1.1759-5.3829-3.382-9.1955-6.6182-11.438-3.2362-2.2424-7.3167-2.7934-12.241-1.6531l-4.7055 1.0896 7.2829 33.339m-9.3391 5.0631-0.60312-2.7609 4.8067-1.113-7.2829-33.339-4.8067 1.113-0.60881-2.787 15.027-3.4797c6.51-1.5074 11.952-0.97061 16.325 1.6104 4.3902 2.5772 7.251 6.9133 8.5824 13.008 1.3352 6.1122 0.55682 11.309-2.335 15.591-2.8919 4.2817-7.5844 7.1743-14.078 8.6779l-15.027 3.4797" fill="#fff" stroke="#000" stroke-opacity=".49804" stroke-width=".84194"/><g transform="matrix(.68244 0 0 .68244 41.065 46.798)"><path d="m54.919 9.1927e-4c-4.5837 0.021298-8.9609 0.41222-12.812 1.0938-11.346 2.0045-13.406 6.2001-13.406 13.937v10.219h26.812v3.4062h-36.875c-7.7925 0-14.616 4.6837-16.75 13.594-2.4618 10.213-2.571 16.586 0 27.25 1.9059 7.9379 6.4575 13.594 14.25 13.594h9.2188v-12.25c0-8.8499 7.6571-16.656 16.75-16.656h26.781c7.455 0 13.406-6.1382 13.406-13.625v-25.531c0-7.2663-6.13-12.725-13.406-13.937-4.606-0.76673-9.3851-1.115-13.969-1.0938zm-14.5 8.2188c2.7695 0 5.0312 2.2986 5.0312 5.125-2e-6 2.8163-2.2617 5.0938-5.0312 5.0938-2.7795-1e-6 -5.0312-2.2774-5.0312-5.0938-1e-6 -2.8264 2.2518-5.125 5.0312-5.125z" fill="url(#g)"/><path d="m85.638 28.657v11.906c0 9.2308-7.8259 17-16.75 17h-26.781c-7.3358 0-13.406 6.2785-13.406 13.625v25.531c0 7.2663 6.3186 11.54 13.406 13.625 8.4873 2.4956 16.626 2.9466 26.781 0 6.7502-1.9544 13.406-5.8876 13.406-13.625v-10.219h-26.781v-3.4062h40.188c7.7925 0 10.696-5.4354 13.406-13.594 2.7993-8.3989 2.6802-16.476 0-27.25-1.9258-7.7574-5.6039-13.594-13.406-13.594zm-15.062 64.656c2.7795 3e-6 5.0312 2.2774 5.0312 5.0937-2e-6 2.8264-2.2518 5.125-5.0312 5.125-2.7696 0-5.0312-2.2986-5.0312-5.125 2e-6 -2.8163 2.2617-5.0937 5.0312-5.0937z" fill="url(#h)"/><ellipse cx="55.817" cy="127.7" rx="35.931" ry="6.9673" fill="url(#e)" opacity=".44382"/></g></svg>
